<svg width="300" height="300" viewBox="0 0 300 300" fill="none" xmlns="http://www.w3.org/2000/svg">
<path d="M300 0H0V300H300V0Z" fill="#19E0E0"/>
<path d="M36.5729 229.197H35.3784H34.1838H32.9892H31.7947H30.6001V228.003V226.808V225.614V224.419V223.225V222.03V220.835H31.7947H32.9892H34.1838H35.3784H36.5729H37.7675V222.03H36.5729H35.3784H34.1838H32.9892V223.225V224.419H34.1838H35.3784H36.5729H37.7675V225.614V226.808V228.003V229.197H36.5729ZM34.1838 228.003H35.3784V226.808V225.614H34.1838H32.9892V226.808V228.003H34.1838Z" fill="black"/>
<path d="M44.9349 229.197H43.7403H42.5458H41.3512H40.1566H38.9621V228.003V226.808H40.1566H41.3512V228.003H42.5458H43.7403V226.808V225.614V224.419H42.5458H41.3512H40.1566H38.9621V223.225V222.03V220.835H40.1566H41.3512H42.5458H43.7403H44.9349H46.1295V222.03H44.9349H43.7403H42.5458H41.3512V223.225H42.5458H43.7403H44.9349H46.1295V224.419V225.614V226.808V228.003V229.197H44.9349Z" fill="black"/>
<path d="M53.2969 228.003H54.4914V229.197H53.2969H52.1023H50.9077H49.7132H48.5186H47.324V228.003V226.808V225.614H48.5186H49.7132H50.9077H52.1023V224.419V223.225V222.03H50.9077H49.7132V223.225H48.5186H47.324V222.03V220.835H48.5186H49.7132H50.9077H52.1023H53.2969H54.4914V222.03V223.225V224.419V225.614V226.808H53.2969H52.1023H50.9077H49.7132V228.003H50.9077H52.1023H53.2969Z" fill="black"/>
<path d="M61.6588 229.197H60.4643H59.2697H58.0751H56.8806H55.686V228.003H56.8806H58.0751H59.2697H60.4643V226.808V225.614H59.2697H58.0751H56.8806H55.686V224.419V223.225V222.03V220.835H56.8806H58.0751H59.2697H60.4643H61.6588H62.8534V222.03V223.225V224.419V225.614V226.808V228.003V229.197H61.6588ZM59.2697 224.419H60.4643V223.225V222.03H59.2697H58.0751V223.225V224.419H59.2697Z" fill="black"/>
<path d="M77.1882 228.003H78.3828V229.197H77.1882H75.9937H74.7991H73.6045H72.41H71.2154H70.0208V228.003V226.808V225.614V224.419H71.2154V223.225V222.03V220.835H72.41H73.6045H74.7991H75.9937V222.03V223.225V224.419H77.1882H78.3828V225.614H77.1882H75.9937V226.808V228.003H77.1882ZM73.6045 228.003V226.808V225.614H72.41V226.808V228.003H73.6045ZM74.7991 224.419V223.225V222.03H73.6045V223.225V224.419H74.7991Z" fill="black"/>
<path d="M91.523 229.197V228.003V226.808V225.614V224.419V223.225H90.3285V224.419V225.614V226.808V228.003H89.1339V226.808V225.614V224.419V223.225H87.9393V224.419V225.614V226.808V228.003V229.197H86.7448H85.5502V228.003V226.808V225.614V224.419V223.225V222.03V220.835H86.7448H87.9393H89.1339H90.3285H91.523H92.7176V222.03V223.225V224.419V225.614V226.808V228.003V229.197H91.523Z" fill="black"/>
<path d="M99.885 228.003H101.08V229.197H99.885H98.6904H97.4959H96.3013H95.1067H93.9122V228.003V226.808V225.614V224.419V223.225V222.03V220.835H95.1067H96.3013H97.4959H98.6904H99.885H101.08V222.03H99.885H98.6904H97.4959H96.3013V223.225V224.419H97.4959H98.6904H99.885V225.614H98.6904H97.4959H96.3013V226.808V228.003H97.4959H98.6904H99.885Z" fill="black"/>
<path d="M108.247 229.197V228.003V226.808V225.614V224.419V223.225H107.052V224.419V225.614V226.808V228.003H105.858V226.808V225.614V224.419V223.225H104.663V224.419V225.614V226.808V228.003V229.197H103.469H102.274V228.003V226.808V225.614V224.419V223.225V222.03V220.835H103.469H104.663H105.858H107.052H108.247H109.442V222.03V223.225V224.419V225.614V226.808V228.003V229.197H108.247Z" fill="black"/>
<path d="M116.609 228.003H117.803V229.197H116.609H115.414H114.22H113.025H111.831H110.636V228.003V226.808V225.614V224.419V223.225V222.03V220.835H111.831H113.025H114.22H115.414H116.609H117.803V222.03H116.609H115.414H114.22H113.025V223.225V224.419H114.22H115.414H116.609V225.614H115.414H114.22H113.025V226.808V228.003H114.22H115.414H116.609Z" fill="black"/>
<path d="M124.971 229.197H123.776H122.582H121.387H120.193H118.998V228.003V226.808H120.193H121.387V228.003H122.582H123.776V226.808V225.614H122.582H121.387H120.193H118.998V224.419V223.225V222.03V220.835H120.193H121.387H122.582H123.776H124.971H126.165V222.03V223.225H124.971H123.776V222.03H122.582H121.387V223.225V224.419H122.582H123.776H124.971H126.165V225.614V226.808V228.003V229.197H124.971Z" fill="black"/>
<path d="M139.306 228.003H140.5V229.197H139.306H138.111H136.917H135.722H134.527H133.333V228.003V226.808V225.614V224.419V223.225V222.03V220.835H134.527H135.722V222.03V223.225V224.419V225.614V226.808V228.003H136.917H138.111H139.306Z" fill="black"/>
<path d="M147.668 228.003H148.862V229.197H147.668H146.473H145.279H144.084H142.889H141.695V228.003V226.808V225.614V224.419V223.225V222.03V220.835H142.889H144.084H145.279H146.473H147.668H148.862V222.03H147.668H146.473H145.279H144.084V223.225V224.419H145.279H146.473H147.668V225.614H146.473H145.279H144.084V226.808V228.003H145.279H146.473H147.668Z" fill="black"/>
<path d="M156.03 229.197H154.835H153.641H152.446H151.251H150.057V228.003V226.808V225.614V224.419V223.225V222.03V220.835H151.251H152.446H153.641H154.835H156.03H157.224V222.03V223.225H156.03H154.835V222.03H153.641H152.446V223.225V224.419V225.614V226.808V228.003H153.641H154.835V226.808V225.614H153.641V224.419H154.835H156.03H157.224V225.614V226.808V228.003V229.197H156.03Z" fill="black"/>
<path d="M164.392 229.197H163.197V228.003V226.808V225.614H162.002H160.808V226.808V228.003V229.197H159.613H158.419V228.003V226.808V225.614V224.419V223.225V222.03V220.835H159.613H160.808H162.002H163.197H164.392H165.586V222.03V223.225V224.419V225.614V226.808V228.003V229.197H164.392ZM162.002 224.419H163.197V223.225V222.03H162.002H160.808V223.225V224.419H162.002Z" fill="black"/>
<path d="M172.754 229.197H171.559H170.364H169.17H167.975H166.781V228.003V226.808V225.614V224.419V223.225V222.03V220.835H167.975H169.17H170.364H171.559H172.754H173.948V222.03V223.225H172.754H171.559V222.03H170.364H169.17V223.225V224.419V225.614V226.808V228.003H170.364H171.559V226.808H172.754H173.948V228.003V229.197H172.754Z" fill="black"/>
<path d="M178.726 229.197H177.532V228.003V226.808V225.614H176.337H175.143V224.419V223.225V222.03V220.835H176.337H177.532V222.03V223.225V224.419H178.726H179.921V223.225V222.03V220.835H181.116H182.31V222.03V223.225V224.419V225.614H181.116H179.921V226.808V228.003V229.197H178.726Z" fill="black"/>
<path d="M195.45 229.197H194.256H193.061H191.867H190.672H189.478V228.003V226.808V225.614V224.419V223.225V222.03V220.835H190.672H191.867H193.061H194.256H195.45H196.645V222.03V223.225H195.45H194.256V222.03H193.061H191.867V223.225V224.419V225.614V226.808V228.003H193.061H194.256V226.808H195.45H196.645V228.003V229.197H195.45Z" fill="black"/>
<path d="M203.812 229.197H202.618H201.423H200.229H199.034H197.839V228.003V226.808V225.614V224.419V223.225V222.03V220.835H199.034H200.229H201.423H202.618H203.812H205.007V222.03V223.225V224.419V225.614V226.808V228.003V229.197H203.812ZM201.423 228.003H202.618V226.808V225.614V224.419V223.225V222.03H201.423H200.229V223.225V224.419V225.614V226.808V228.003H201.423Z" fill="black"/>
<path d="M212.174 228.003H213.369V229.197H212.174H210.98H209.785H208.591H207.396H206.201V228.003V226.808V225.614V224.419V223.225V222.03V220.835H207.396H208.591V222.03V223.225V224.419V225.614V226.808V228.003H209.785H210.98H212.174Z" fill="black"/>
<path d="M220.536 228.003H221.731V229.197H220.536H219.342H218.147H216.953H215.758H214.563V228.003V226.808V225.614V224.419V223.225V222.03V220.835H215.758H216.953V222.03V223.225V224.419V225.614V226.808V228.003H218.147H219.342H220.536Z" fill="black"/>
<path d="M228.898 228.003H230.093V229.197H228.898H227.704H226.509H225.315H224.12H222.925V228.003V226.808V225.614V224.419V223.225V222.03V220.835H224.12H225.315H226.509H227.704H228.898H230.093V222.03H228.898H227.704H226.509H225.315V223.225V224.419H226.509H227.704H228.898V225.614H227.704H226.509H225.315V226.808V228.003H226.509H227.704H228.898Z" fill="black"/>
<path d="M237.26 229.197H236.066H234.871H233.677H232.482H231.287V228.003V226.808V225.614V224.419V223.225V222.03V220.835H232.482H233.677H234.871H236.066H237.26H238.455V222.03V223.225H237.26H236.066V222.03H234.871H233.677V223.225V224.419V225.614V226.808V228.003H234.871H236.066V226.808H237.26H238.455V228.003V229.197H237.26Z" fill="black"/>
<path d="M243.233 229.197H242.038V228.003V226.808V225.614V224.419V223.225V222.03H240.844H239.649V220.835H240.844H242.038H243.233H244.428H245.622H246.817V222.03H245.622H244.428V223.225V224.419V225.614V226.808V228.003V229.197H243.233Z" fill="black"/>
<path d="M251.595 229.197H250.4H249.206H248.011V228.003H249.206V226.808V225.614V224.419V223.225V222.03H248.011V220.835H249.206H250.4H251.595H252.79V222.03H251.595V223.225V224.419V225.614V226.808V228.003H252.79V229.197H251.595Z" fill="black"/>
<path d="M259.957 229.197H258.762H257.568H256.373H255.179H253.984V228.003V226.808V225.614V224.419V223.225V222.03V220.835H255.179H256.373H257.568H258.762H259.957H261.152V222.03V223.225V224.419V225.614V226.808V228.003V229.197H259.957ZM257.568 228.003H258.762V226.808V225.614V224.419V223.225V222.03H257.568H256.373V223.225V224.419V225.614V226.808V228.003H257.568Z" fill="black"/>
<path d="M268.319 229.197H267.124V228.003V226.808V225.614V224.419V223.225V222.03H265.93H264.735V223.225V224.419V225.614V226.808V228.003V229.197H263.541H262.346V228.003V226.808V225.614V224.419V223.225V222.03V220.835H263.541H264.735H265.93H267.124H268.319H269.514V222.03V223.225V224.419V225.614V226.808V228.003V229.197H268.319Z" fill="black"/>
<path fill-rule="evenodd" clip-rule="evenodd" d="M269.896 218.135H30V216.292H269.896V218.135Z" fill="#BF7A13"/>
<path d="M72.6551 202.316V185.295H68.3999V178.203H85.4208V185.295H81.1656V202.316H72.6551Z" fill="white"/>
<path d="M87.1938 202.316V178.203H94.2859V188.132H97.1227V178.203H104.215V202.316H97.1227V195.49H94.2859V202.316H87.1938Z" fill="white"/>
<path d="M105.988 202.316V178.203H122.034V184.763H113.08V187.156H119.197V192.83H113.08V195.667H122.034V202.316H105.988Z" fill="white"/>
<path d="M135.065 202.316V178.203H140.739L145.881 183.344L151.022 178.203H156.696V202.316H149.604V189.55L145.881 193.273L142.157 189.55V202.316H135.065Z" fill="white"/>
<path d="M158.469 202.316V178.203H174.515V184.763H165.561V187.156H171.678V192.83H165.561V195.667H174.515V202.316H158.469Z" fill="white"/>
<path d="M186.217 190.968V185.295H183.38V190.968H186.217ZM176.288 202.316V178.203H193.309V202.316H186.217V197.44H183.38V202.316H176.288Z" fill="white"/>
<path d="M195.082 202.316V178.203H200.755L205.897 183.167V178.203H212.989V202.316H205.897V193.362L202.174 189.816V202.316H195.082Z" fill="white"/>
<path d="M214.762 202.316V195.667H224.691V193.717H214.762V178.203H231.783V184.852H221.854V186.802H231.783V202.316H214.762Z" fill="white"/>
<path d="M61.3062 99.1759C60.2373 99.1759 59.3772 99.1759 58.3021 99.1759C58.3021 135.747 58.3021 172.14 58.3021 208.711C48.7739 208.711 39.4607 208.711 30.0061 208.711C30.0061 162.9 30.0061 117.071 30 71.23C65.0229 71.2177 100.052 71.2177 135.314 71.2177C135.314 87.8108 135.314 104.097 135.314 120.616C144.953 120.616 154.353 120.616 164.36 120.616C164.36 103.986 164.36 87.3439 164.36 70.8C199.764 70.8 234.565 70.8 269.472 70.8C269.472 116.979 269.472 162.802 269.472 208.76C260.146 208.76 250.882 208.76 241.342 208.76C241.342 172.404 241.342 136.017 241.342 99.3233C224.945 99.3233 208.813 99.3233 191.992 99.3233C191.992 115.007 191.98 130.654 192.005 146.307C192.005 147.782 191.851 149.213 190.07 149.219C162.48 149.262 134.884 149.25 107.012 149.25C107.012 132.675 107.012 116.248 107.012 99.182C91.6725 99.1759 76.5969 99.1759 61.3062 99.1759Z" fill="black"/>
</svg>
