<svg width="300" height="300" viewBox="0 0 300 300" fill="none" xmlns="http://www.w3.org/2000/svg">
<g clip-path="url(#clip0_1_69)">
<path d="M300 0H0V300H300V0Z" fill="black"/>
<path d="M170.912 24.9358V31.513H150.786V65.5277H144.147V31.513H15.314V24.9358H170.086H170.912Z" fill="white"/>
<path d="M226.279 24.876V65.5277H219.703V48.49H186.147V65.5277H179.539V24.876H186.147V41.9137H219.703V24.876H225.544H226.279Z" fill="white"/>
<path d="M272.044 24.6C273.429 24.6 274.74 24.8398 275.973 25.3185C277.207 25.7982 278.303 26.4651 279.263 27.3221C280.22 28.1782 281.025 29.1827 281.678 30.3356C282.331 31.4867 282.759 32.7365 282.963 34.0822L283.147 34.9998H276.264L276.142 34.388C275.877 33.5111 275.372 32.7917 274.628 32.2315C273.884 31.6714 273.023 31.3908 272.045 31.3908H247.114C245.911 31.3908 244.9 31.7926 244.085 32.598C243.27 33.4034 242.861 34.4179 242.861 35.6414V41.9119H275.499V48.4891H242.861V54.7297C242.861 55.9125 243.27 56.9215 244.085 57.7586C244.899 58.5939 245.911 59.012 247.114 59.012H272.045C273.023 59.012 273.884 58.7269 274.628 58.1559C275.372 57.5858 275.877 56.8401 276.142 55.9233L276.264 55.4338H283.147L282.963 56.3206C282.759 57.6464 282.331 58.8952 281.678 60.0681C281.025 61.2409 280.22 62.2454 279.263 63.0816C278.303 63.9169 277.207 64.5748 275.973 65.0544C274.74 65.5331 273.429 65.772 272.044 65.772H247.113C245.624 65.772 244.212 65.4815 242.876 64.9005C241.54 64.3196 240.368 63.5241 239.357 62.5151C238.349 61.5051 237.553 60.3323 236.972 58.9975C236.39 57.6609 236.101 56.2392 236.101 54.7306V35.6432C236.101 34.0939 236.39 32.6505 236.972 31.3157C237.553 29.9791 238.348 28.8117 239.357 27.8126C240.367 26.8135 241.54 26.028 242.876 25.457C244.212 24.886 245.624 24.6009 247.113 24.6009H272.044V24.6Z" fill="white"/>
<path d="M64.1266 78.874C65.675 78.874 67.1193 79.1645 68.4541 79.7455C69.7898 80.3274 70.9581 81.1219 71.9563 82.1319C72.9563 83.1418 73.7463 84.3137 74.3264 85.6494C74.9083 86.9852 75.1988 88.3969 75.1988 89.8856V119.466H68.3772V89.8856C68.3772 88.7236 67.9591 87.7236 67.1238 86.8883C66.2877 86.0531 65.2877 85.6341 64.1266 85.6341H52.9612C51.7594 85.6341 50.7486 86.0522 49.9323 86.8883C49.1179 87.7245 48.7079 88.7236 48.7079 89.8856V119.466H41.7044V89.8856C41.7044 88.7236 41.3072 87.7236 40.5108 86.8883C39.7153 86.0531 38.7063 85.6341 37.4828 85.6341H26.0432C24.9003 85.6341 23.912 86.0522 23.0749 86.8883C22.2397 87.7245 21.8216 88.7236 21.8216 89.8856V119.466H15V89.8856C15 88.3969 15.2896 86.9852 15.8724 85.6494C16.4543 84.3137 17.2488 83.1418 18.2588 82.1319C19.2678 81.1219 20.4397 80.3274 21.7763 79.7455C23.1121 79.1645 24.5347 78.874 26.0441 78.874H37.4837C38.9525 78.874 40.3434 79.1446 41.6583 79.6849C42.9741 80.2242 44.1514 81.0152 45.1922 82.055C47.4138 79.9337 50.0038 78.8731 52.9612 78.8731H64.1266V78.874Z" fill="white"/>
<path d="M116.581 78.5184C117.968 78.5184 119.278 78.7582 120.512 79.2378C121.745 79.7165 122.841 80.3844 123.8 81.2405C124.76 82.0975 125.563 83.102 126.218 84.254C126.87 85.406 127.297 86.6549 127.502 88.0014L127.685 88.9191H120.803L120.68 88.3073C120.415 87.4304 119.911 86.711 119.166 86.1508C118.421 85.5897 117.561 85.3092 116.582 85.3092H91.6528C90.4492 85.3092 89.4401 85.7119 88.6248 86.5173C87.8076 87.3236 87.3995 88.3381 87.3995 89.5607V95.8321H120.038V102.407H87.3995V108.649C87.3995 109.832 87.8067 110.84 88.6248 111.676C89.4392 112.512 90.4492 112.931 91.6528 112.931H116.582C117.561 112.931 118.421 112.645 119.166 112.075C119.911 111.504 120.415 110.759 120.68 109.843L120.803 109.352H127.685L127.502 110.239C127.297 111.565 126.87 112.813 126.218 113.986C125.563 115.16 124.76 116.163 123.8 116.998C122.841 117.836 121.745 118.493 120.512 118.972C119.278 119.452 117.968 119.692 116.581 119.692H91.6519C90.1623 119.692 88.7515 119.401 87.4139 118.82C86.0782 118.238 84.9063 117.442 83.8964 116.433C82.8873 115.424 82.091 114.252 81.5109 112.916C80.929 111.58 80.6385 110.158 80.6385 108.649V89.5607C80.6385 88.0114 80.929 86.5689 81.5109 85.2332C82.091 83.8965 82.8873 82.73 83.8964 81.7301C84.9054 80.731 86.0782 79.9464 87.4139 79.3754C88.7515 78.8043 90.1614 78.5184 91.6519 78.5184H116.581V78.5184Z" fill="white"/>
<path d="M160.103 78.7935L181.942 119.446H174.449C174.408 119.404 174.24 119.088 173.943 118.498C173.649 117.906 173.25 117.14 172.752 116.203C172.251 115.266 171.752 114.328 171.253 113.389C170.753 112.452 170.304 111.625 169.906 110.911C169.509 110.198 169.27 109.76 169.189 109.597H143.434C143.35 109.76 143.111 110.198 142.714 110.911C142.317 111.625 141.877 112.452 141.398 113.389C140.919 114.328 140.43 115.266 139.931 116.203C139.431 117.14 139.023 117.906 138.706 118.498C138.389 119.088 138.211 119.404 138.17 119.446H130.707L152.578 78.7935H159.644H160.103ZM154.658 87.2358C154.168 88.1544 153.614 89.1996 152.991 90.3715C152.369 91.5435 151.7 92.7986 150.988 94.1335C150.273 95.4692 149.595 96.7234 148.954 97.8954C148.31 99.0682 147.75 100.094 147.272 100.97C146.793 101.846 146.471 102.427 146.307 102.713H165.09C164.926 102.427 164.606 101.846 164.127 100.97C163.648 100.094 163.082 99.0673 162.429 97.8954C161.776 96.7234 161.098 95.4692 160.394 94.1335C159.692 92.7977 159.013 91.5435 158.362 90.3715C157.708 89.1996 157.142 88.1535 156.663 87.2358C156.184 86.3182 155.862 85.6965 155.7 85.3707C155.494 85.6965 155.147 86.3182 154.658 87.2358Z" fill="white"/>
<path d="M220.999 78.9464C222.509 78.9464 223.931 79.2378 225.266 79.8188C226.602 80.4007 227.77 81.1798 228.769 82.159C229.768 83.1382 230.559 84.2992 231.14 85.6458C231.721 86.9915 232.01 88.4087 232.01 89.8973V119.537H225.19V89.8973C225.19 88.7752 224.772 87.7969 223.935 86.9607C223.099 86.1245 222.121 85.7065 220.999 85.7065H196.07C194.886 85.7065 193.878 86.1245 193.042 86.9607C192.205 87.7969 191.786 88.7752 191.786 89.8973V119.537H184.964V89.8973C184.964 88.4087 185.261 86.9915 185.852 85.6458C186.443 84.2992 187.239 83.1382 188.238 82.159C189.237 81.1798 190.415 80.3998 191.77 79.8188C193.128 79.2378 194.56 78.9464 196.069 78.9464H220.999V78.9464Z" fill="white"/>
<path d="M275.119 78.7935C276.321 78.7935 277.478 79.0134 278.589 79.4514C279.701 79.8894 280.696 80.4857 281.573 81.2405C282.449 81.9961 283.178 82.8929 283.759 83.9327C284.341 84.9725 284.713 86.0947 284.876 87.2974L285 88.1236H278.79L278.606 87.634C278.401 86.8793 277.98 86.2521 277.337 85.7526C276.694 85.2531 275.956 85.0033 275.12 85.0033L249.915 84.9427C248.465 84.9427 247.238 85.3906 246.229 86.2883C245.22 87.1861 244.714 88.2765 244.714 89.5607V91.519C244.714 92.0086 244.842 92.5127 245.097 93.033C245.351 93.5534 245.699 94.0221 246.137 94.4402C246.575 94.8583 247.116 95.2049 247.756 95.48C248.399 95.7551 249.118 95.8927 249.915 95.8927H273.161C277.096 95.852 280.123 96.8519 282.245 98.8908C284.04 100.808 284.938 103.378 284.938 106.599V108.618C284.938 110.066 284.627 111.447 284.005 112.763C283.383 114.077 282.537 115.231 281.465 116.218C280.395 117.207 279.15 117.984 277.735 118.543C276.318 119.104 274.792 119.384 273.161 119.384H247.987C246.763 119.384 245.601 119.166 244.499 118.725C243.397 118.29 242.409 117.683 241.533 116.906C240.656 116.132 239.911 115.224 239.3 114.184C238.688 113.143 238.3 112.013 238.137 110.789L238.075 109.993H244.285L244.469 110.482C244.672 111.278 245.11 111.916 245.784 112.394C246.457 112.872 247.191 113.113 247.987 113.113L273.161 113.174C274.588 113.174 275.802 112.735 276.8 111.858C277.799 110.981 278.299 109.901 278.299 108.616V106.597C278.299 106.107 278.187 105.597 277.963 105.068C277.738 104.537 277.407 104.064 276.968 103.645C276.53 103.228 275.984 102.886 275.331 102.621C274.678 102.357 273.955 102.223 273.16 102.223L249.914 102.284C245.917 102.284 242.889 101.274 240.828 99.2564C239.034 97.4211 238.136 94.8411 238.136 91.5172V89.5589C238.136 88.0503 238.442 86.6485 239.053 85.3535C239.667 84.0594 240.503 82.9219 241.563 81.9436C242.622 80.9645 243.872 80.1943 245.31 79.6333C246.746 79.0731 248.281 78.7926 249.914 78.7926H275.119V78.7935Z" fill="white"/>
<path d="M170.912 275.064V268.487H150.786V234.472H144.147V268.487H15.314V275.064H170.086H170.912Z" fill="white"/>
<path d="M226.279 275.124V234.472H219.703V251.51H186.147V234.472H179.539V275.124H186.147V258.086H219.703V275.124H225.544H226.279Z" fill="white"/>
<path d="M272.044 275.4C273.429 275.4 274.74 275.16 275.973 274.681C277.207 274.202 278.303 273.535 279.263 272.678C280.22 271.822 281.025 270.817 281.678 269.664C282.331 268.513 282.759 267.264 282.963 265.918L283.147 265H276.264L276.142 265.612C275.877 266.489 275.372 267.208 274.628 267.768C273.884 268.329 273.023 268.609 272.045 268.609H247.114C245.911 268.609 244.9 268.207 244.085 267.402C243.27 266.597 242.861 265.582 242.861 264.359V258.088H275.499V251.511H242.861V245.27C242.861 244.088 243.27 243.078 244.085 242.241C244.899 241.406 245.911 240.988 247.114 240.988H272.045C273.023 240.988 273.884 241.273 274.628 241.844C275.372 242.414 275.877 243.16 276.142 244.077L276.264 244.566H283.147L282.963 243.679C282.759 242.354 282.331 241.105 281.678 239.932C281.025 238.759 280.22 237.755 279.263 236.918C278.303 236.083 277.207 235.425 275.973 234.946C274.74 234.467 273.429 234.228 272.044 234.228H247.113C245.624 234.228 244.212 234.518 242.876 235.099C241.54 235.68 240.368 236.476 239.357 237.485C238.349 238.495 237.553 239.668 236.972 241.003C236.39 242.339 236.101 243.761 236.101 245.269V264.357C236.101 265.906 236.39 267.349 236.972 268.684C237.553 270.021 238.348 271.188 239.357 272.187C240.367 273.186 241.54 273.972 242.876 274.543C244.212 275.114 245.624 275.399 247.113 275.399H272.044V275.4Z" fill="white"/>
<path d="M64.1266 221.126C65.675 221.126 67.1193 220.835 68.4541 220.255C69.7898 219.673 70.9581 218.878 71.9563 217.868C72.9563 216.858 73.7463 215.686 74.3264 214.351C74.9083 213.015 75.1988 211.603 75.1988 210.114V180.534H68.3772V210.114C68.3772 211.276 67.9591 212.276 67.1238 213.112C66.2877 213.947 65.2877 214.366 64.1266 214.366H52.9612C51.7594 214.366 50.7486 213.948 49.9323 213.112C49.1179 212.275 48.7079 211.276 48.7079 210.114V180.534H41.7044V210.114C41.7044 211.276 41.3072 212.276 40.5108 213.112C39.7153 213.947 38.7063 214.366 37.4828 214.366H26.0432C24.9003 214.366 23.912 213.948 23.0749 213.112C22.2397 212.275 21.8216 211.276 21.8216 210.114V180.534H15V210.114C15 211.603 15.2896 213.015 15.8724 214.351C16.4543 215.686 17.2488 216.858 18.2588 217.868C19.2678 218.878 20.4397 219.673 21.7763 220.255C23.1121 220.835 24.5347 221.126 26.0441 221.126H37.4837C38.9525 221.126 40.3434 220.855 41.6583 220.315C42.9741 219.776 44.1514 218.985 45.1922 217.945C47.4138 220.066 50.0038 221.127 52.9612 221.127H64.1266V221.126Z" fill="white"/>
<path d="M116.581 221.482C117.968 221.482 119.278 221.242 120.512 220.762C121.745 220.283 122.841 219.616 123.8 218.76C124.76 217.903 125.563 216.898 126.218 215.746C126.87 214.594 127.297 213.345 127.502 211.999L127.685 211.081H120.803L120.68 211.693C120.415 212.57 119.911 213.289 119.166 213.849C118.421 214.41 117.561 214.691 116.582 214.691H91.6528C90.4492 214.691 89.4401 214.288 88.6248 213.483C87.8076 212.676 87.3995 211.662 87.3995 210.439V204.168H120.038V197.593H87.3995V191.351C87.3995 190.168 87.8067 189.16 88.6248 188.324C89.4392 187.488 90.4492 187.069 91.6528 187.069H116.582C117.561 187.069 118.421 187.355 119.166 187.925C119.911 188.496 120.415 189.241 120.68 190.157L120.803 190.648H127.685L127.502 189.761C127.297 188.435 126.87 187.187 126.218 186.014C125.563 184.84 124.76 183.837 123.8 183.002C122.841 182.164 121.745 181.507 120.512 181.028C119.278 180.548 117.968 180.308 116.581 180.308H91.6519C90.1623 180.308 88.7515 180.599 87.4139 181.18C86.0782 181.762 84.9063 182.558 83.8964 183.567C82.8873 184.576 82.091 185.748 81.5109 187.084C80.929 188.42 80.6385 189.842 80.6385 191.351V210.439C80.6385 211.989 80.929 213.431 81.5109 214.767C82.091 216.103 82.8873 217.27 83.8964 218.27C84.9054 219.269 86.0782 220.054 87.4139 220.625C88.7515 221.196 90.1614 221.482 91.6519 221.482H116.581V221.482Z" fill="white"/>
<path d="M160.103 221.207L181.942 180.554H174.449C174.408 180.596 174.24 180.912 173.943 181.502C173.649 182.094 173.25 182.86 172.752 183.797C172.251 184.734 171.752 185.672 171.253 186.611C170.753 187.548 170.304 188.375 169.906 189.089C169.509 189.802 169.27 190.24 169.189 190.403H143.434C143.35 190.24 143.111 189.802 142.714 189.089C142.317 188.375 141.877 187.548 141.398 186.611C140.919 185.672 140.43 184.734 139.931 183.797C139.431 182.86 139.023 182.094 138.706 181.502C138.389 180.912 138.211 180.596 138.17 180.554H130.707L152.578 221.207H159.644H160.103ZM154.658 212.764C154.168 211.846 153.614 210.8 152.991 209.628C152.369 208.457 151.7 207.201 150.988 205.867C150.273 204.531 149.595 203.277 148.954 202.105C148.31 200.932 147.75 199.906 147.272 199.03C146.793 198.154 146.471 197.573 146.307 197.287H165.09C164.926 197.573 164.606 198.154 164.127 199.03C163.648 199.906 163.082 200.933 162.429 202.105C161.776 203.277 161.098 204.531 160.394 205.867C159.692 207.202 159.013 208.457 158.362 209.628C157.708 210.8 157.142 211.847 156.663 212.764C156.184 213.682 155.862 214.303 155.7 214.629C155.494 214.303 155.147 213.682 154.658 212.764Z" fill="white"/>
<path d="M220.999 221.054C222.509 221.054 223.931 220.762 225.266 220.181C226.602 219.599 227.77 218.82 228.769 217.841C229.768 216.862 230.559 215.701 231.14 214.354C231.721 213.009 232.01 211.591 232.01 210.103V180.463H225.19V210.103C225.19 211.225 224.772 212.203 223.935 213.039C223.099 213.875 222.121 214.294 220.999 214.294H196.07C194.886 214.294 193.878 213.875 193.042 213.039C192.205 212.203 191.786 211.225 191.786 210.103V180.463H184.964V210.103C184.964 211.591 185.261 213.009 185.852 214.354C186.443 215.701 187.239 216.862 188.238 217.841C189.237 218.82 190.415 219.6 191.77 220.181C193.128 220.762 194.56 221.054 196.069 221.054H220.999V221.054Z" fill="white"/>
<path d="M275.119 221.207C276.321 221.207 277.478 220.987 278.589 220.549C279.701 220.111 280.696 219.514 281.573 218.76C282.449 218.004 283.178 217.107 283.759 216.067C284.341 215.027 284.713 213.905 284.876 212.703L285 211.876H278.79L278.606 212.366C278.401 213.121 277.98 213.748 277.337 214.247C276.694 214.747 275.956 214.997 275.12 214.997L249.915 215.057C248.465 215.057 247.238 214.609 246.229 213.712C245.22 212.814 244.714 211.723 244.714 210.439V208.481C244.714 207.991 244.842 207.487 245.097 206.967C245.351 206.447 245.699 205.978 246.137 205.56C246.575 205.142 247.116 204.795 247.756 204.52C248.399 204.245 249.118 204.107 249.915 204.107H273.161C277.096 204.148 280.123 203.148 282.245 201.109C284.04 199.192 284.938 196.622 284.938 193.401V191.382C284.938 189.934 284.627 188.553 284.005 187.237C283.383 185.923 282.537 184.769 281.465 183.782C280.395 182.793 279.15 182.016 277.735 181.457C276.318 180.896 274.792 180.616 273.161 180.616H247.987C246.763 180.616 245.601 180.834 244.499 181.275C243.397 181.71 242.409 182.317 241.533 183.094C240.656 183.868 239.911 184.776 239.3 185.816C238.688 186.857 238.3 187.987 238.137 189.211L238.075 190.007H244.285L244.469 189.518C244.672 188.722 245.11 188.084 245.784 187.606C246.457 187.128 247.191 186.887 247.987 186.887L273.161 186.826C274.588 186.826 275.802 187.265 276.8 188.142C277.799 189.019 278.299 190.099 278.299 191.384V193.403C278.299 193.893 278.187 194.403 277.963 194.932C277.738 195.463 277.407 195.936 276.968 196.355C276.53 196.772 275.984 197.114 275.331 197.379C274.678 197.643 273.955 197.777 273.16 197.777L249.914 197.716C245.917 197.716 242.889 198.726 240.828 200.744C239.034 202.579 238.136 205.159 238.136 208.483V210.441C238.136 211.95 238.442 213.351 239.053 214.646C239.667 215.941 240.503 217.078 241.563 218.056C242.622 219.036 243.872 219.806 245.31 220.367C246.746 220.927 248.281 221.207 249.914 221.207H275.119V221.207Z" fill="white"/>
<rect x="15" y="144" width="270" height="12" fill="white"/>
</g>
<defs>
<clipPath id="clip0_1_69">
<rect width="300" height="300" fill="white"/>
</clipPath>
</defs>
</svg>
