<svg width="301" height="223" viewBox="0 0 301 223" fill="none" xmlns="http://www.w3.org/2000/svg">
<path d="M174.925 1.12601V8.39249H152.685V45.9717H145.349V8.39249H2.98602V1.12601H174.012H174.925Z" fill="white"/>
<path d="M236.107 1.06V45.9717H228.84V27.1486H191.76V45.9717H184.458V1.06H191.76V19.8831H228.84V1.06H235.295H236.107Z" fill="white"/>
<path d="M286.678 0.755005C288.209 0.755005 289.657 1.01994 291.02 1.54883C292.384 2.07872 293.595 2.81557 294.655 3.76238C295.713 4.70818 296.603 5.81795 297.324 7.09169C298.046 8.36343 298.519 9.74414 298.744 11.2308L298.947 12.2446H291.342L291.207 11.5688C290.914 10.6 290.356 9.80513 289.534 9.18626C288.712 8.56739 287.76 8.25745 286.679 8.25745H259.13C257.801 8.25745 256.684 8.70136 255.783 9.59117C254.882 10.481 254.43 11.6017 254.43 12.9535V19.881H290.496V27.1475H254.43V34.0421C254.43 35.3488 254.882 36.4636 255.783 37.3884C256.683 38.3112 257.801 38.7731 259.13 38.7731H286.679C287.76 38.7731 288.712 38.4582 289.534 37.8273C290.356 37.1975 290.914 36.3736 291.207 35.3608L291.342 34.8199H298.947L298.744 35.7997C298.519 37.2644 298.046 38.6441 297.324 39.9399C296.603 41.2356 295.713 42.3454 294.655 43.2692C293.595 44.192 292.384 44.9188 291.02 45.4487C289.658 45.9776 288.209 46.2416 286.678 46.2416H259.129C257.484 46.2416 255.923 45.9206 254.447 45.2788C252.971 44.6369 251.676 43.7581 250.559 42.6433C249.445 41.5275 248.565 40.2318 247.923 38.7571C247.28 37.2804 246.96 35.7098 246.96 34.0431V12.9555C246.96 11.2438 247.28 9.64915 247.923 8.17446C248.565 6.69776 249.444 5.40803 250.559 4.30426C251.675 3.20049 252.971 2.33267 254.447 1.7018C255.923 1.07093 257.484 0.755996 259.129 0.755996H286.678V0.755005Z" fill="white"/>
<path d="M56.925 60.7167C58.636 60.7167 60.232 61.0376 61.707 61.6795C63.183 62.3223 64.474 63.2001 65.577 64.3159C66.682 65.4317 67.555 66.7264 68.196 68.2021C68.839 69.6778 69.16 71.2375 69.16 72.8821V105.562H61.622V72.8821C61.622 71.5984 61.16 70.4936 60.237 69.5708C59.313 68.648 58.208 68.1851 56.925 68.1851H44.587C43.259 68.1851 42.142 68.647 41.24 69.5708C40.34 70.4946 39.887 71.5984 39.887 72.8821V105.562H32.148V72.8821C32.148 71.5984 31.709 70.4936 30.829 69.5708C29.95 68.648 28.835 68.1851 27.483 68.1851H14.842C13.579 68.1851 12.487 68.647 11.562 69.5708C10.639 70.4946 10.177 71.5984 10.177 72.8821V105.562H2.63901V72.8821C2.63901 71.2375 2.959 69.6778 3.603 68.2021C4.246 66.7264 5.12401 65.4317 6.24001 64.3159C7.35501 63.2001 8.65001 62.3223 10.127 61.6795C11.603 61.0376 13.175 60.7167 14.843 60.7167H27.484C29.107 60.7167 30.644 61.0156 32.097 61.6125C33.551 62.2083 34.852 63.0822 36.002 64.2309C38.457 61.8874 41.319 60.7157 44.587 60.7157H56.925V60.7167Z" fill="white"/>
<path d="M114.888 60.3237C116.421 60.3237 117.868 60.5886 119.232 61.1185C120.595 61.6474 121.806 62.3852 122.865 63.331C123.926 64.2778 124.814 65.3876 125.537 66.6603C126.258 67.9331 126.73 69.3128 126.956 70.8005L127.158 71.8143H119.554L119.418 71.1384C119.125 70.1696 118.568 69.3748 117.745 68.7559C116.922 68.136 115.971 67.8261 114.889 67.8261H87.342C86.012 67.8261 84.897 68.271 83.996 69.1608C83.093 70.0516 82.642 71.1724 82.642 72.5231V79.4517H118.708V86.7162H82.642V93.6118C82.642 94.9185 83.092 96.0323 83.996 96.9561C84.896 97.8799 86.012 98.3428 87.342 98.3428H114.889C115.971 98.3428 116.922 98.0269 117.745 97.397C118.568 96.7661 119.125 95.9433 119.418 94.9305L119.554 94.3886H127.158L126.956 95.3684C126.73 96.8331 126.258 98.2118 125.537 99.5085C124.814 100.805 123.926 101.913 122.865 102.836C121.806 103.762 120.595 104.488 119.232 105.016C117.869 105.547 116.421 105.812 114.888 105.812H87.341C85.695 105.812 84.136 105.49 82.658 104.848C81.182 104.206 79.887 103.327 78.771 102.212C77.656 101.097 76.776 99.8015 76.135 98.3258C75.492 96.8501 75.171 95.2784 75.171 93.6118V72.5231C75.171 70.8115 75.492 69.2178 76.135 67.7421C76.776 66.2654 77.656 64.9767 78.771 63.8719C79.886 62.7681 81.182 61.9013 82.658 61.2705C84.136 60.6396 85.694 60.3237 87.341 60.3237H114.888V60.3237Z" fill="white"/>
<path d="M162.981 60.6277L187.114 105.54H178.834C178.788 105.494 178.603 105.144 178.275 104.493C177.95 103.839 177.509 102.993 176.958 101.957C176.405 100.922 175.853 99.8855 175.302 98.8487C174.749 97.813 174.253 96.9001 173.814 96.1113C173.375 95.3235 173.111 94.8396 173.021 94.6596H144.561C144.469 94.8396 144.205 95.3235 143.766 96.1113C143.327 96.9001 142.841 97.813 142.312 98.8487C141.782 99.8855 141.242 100.922 140.69 101.957C140.138 102.993 139.687 103.839 139.337 104.493C138.987 105.144 138.79 105.494 138.745 105.54H130.498L154.666 60.6277H162.474H162.981ZM156.964 69.9547C156.423 70.9695 155.81 72.1243 155.122 73.419C154.435 74.7137 153.696 76.1005 152.909 77.5751C152.119 79.0508 151.37 80.4366 150.661 81.7313C149.95 83.027 149.331 84.1598 148.802 85.1276C148.273 86.0954 147.917 86.7383 147.736 87.0542H168.492C168.31 86.7383 167.957 86.0964 167.428 85.1276C166.898 84.1598 166.273 83.026 165.551 81.7313C164.83 80.4366 164.081 79.0508 163.303 77.5751C162.527 76.0995 161.776 74.7137 161.057 73.419C160.335 72.1243 159.709 70.9685 159.18 69.9547C158.651 68.9409 158.295 68.2541 158.116 67.8942C157.888 68.2541 157.505 68.9409 156.964 69.9547Z" fill="white"/>
<path d="M230.273 60.7967C231.941 60.7967 233.512 61.1186 234.988 61.7605C236.464 62.4033 237.755 63.2641 238.859 64.3459C239.962 65.4277 240.836 66.7104 241.478 68.1981C242.12 69.6848 242.44 71.2505 242.44 72.8952V105.641H234.904V72.8952C234.904 71.6554 234.442 70.5746 233.517 69.6508C232.593 68.727 231.512 68.2651 230.273 68.2651H202.725C201.417 68.2651 200.303 68.727 199.379 69.6508C198.454 70.5746 197.991 71.6554 197.991 72.8952V105.641H190.453V72.8952C190.453 71.2505 190.781 69.6848 191.434 68.1981C192.087 66.7104 192.967 65.4277 194.071 64.3459C195.175 63.2641 196.476 62.4023 197.974 61.7605C199.474 61.1186 201.057 60.7967 202.724 60.7967H230.273V60.7967Z" fill="white"/>
<path d="M290.076 60.6277C291.405 60.6277 292.683 60.8706 293.911 61.3545C295.14 61.8384 296.239 62.4973 297.208 63.3311C298.176 64.1659 298.982 65.1567 299.624 66.3055C300.267 67.4542 300.678 68.694 300.858 70.0227L300.995 70.9355H294.133L293.929 70.3946C293.703 69.5608 293.238 68.868 292.527 68.3161C291.817 67.7642 291.001 67.4882 290.077 67.4882L262.225 67.4212C260.623 67.4212 259.267 67.9161 258.152 68.9079C257.037 69.8997 256.478 71.1045 256.478 72.5232V74.6867C256.478 75.2276 256.619 75.7845 256.901 76.3594C257.182 76.9343 257.566 77.4522 258.05 77.9141C258.535 78.376 259.132 78.7589 259.839 79.0628C260.55 79.3668 261.345 79.5187 262.225 79.5187H287.913C292.261 79.4738 295.606 80.5785 297.951 82.8311C299.934 84.9496 300.926 87.788 300.926 91.3473V93.5778C300.926 95.1775 300.583 96.7032 299.895 98.1569C299.208 99.6086 298.273 100.883 297.089 101.974C295.906 103.067 294.531 103.925 292.967 104.543C291.401 105.162 289.715 105.471 287.913 105.471H260.095C258.742 105.471 257.458 105.23 256.241 104.744C255.023 104.263 253.931 103.593 252.963 102.734C251.994 101.879 251.171 100.876 250.495 99.7266C249.819 98.5768 249.391 97.3281 249.21 95.9763L249.142 95.0965H256.004L256.207 95.6374C256.432 96.5162 256.916 97.2211 257.66 97.749C258.404 98.2779 259.215 98.5438 260.095 98.5438L287.913 98.6108C289.49 98.6108 290.831 98.1259 291.934 97.1571C293.038 96.1883 293.59 94.9955 293.59 93.5758V91.3453C293.59 90.8034 293.466 90.2405 293.219 89.6556C292.97 89.0688 292.605 88.5459 292.12 88.084C291.635 87.6231 291.032 87.2451 290.31 86.9522C289.589 86.6603 288.79 86.5123 287.912 86.5123L262.224 86.5803C257.807 86.5803 254.461 85.4645 252.184 83.235C250.202 81.2074 249.209 78.357 249.209 74.6847V72.5212C249.209 70.8545 249.547 69.3059 250.223 67.8752C250.901 66.4455 251.825 65.1887 252.996 64.1079C254.166 63.0262 255.548 62.1753 257.137 61.5555C258.724 60.9366 260.42 60.6267 262.224 60.6267H290.076V60.6277Z" fill="white"/>
<path d="M24.14 151.903V162.215C24.104 164.521 23.452 166.367 22.196 167.753C20.933 169.139 19.152 169.832 16.847 169.832H10.689C9.60803 169.832 8.70902 170.144 7.98902 170.777C7.26802 171.405 6.90902 172.26 6.90902 173.341L6.96202 181.819C6.78402 183.081 6.17002 183.709 5.12602 183.709C3.79402 183.709 3.12802 183.081 3.12802 181.819L3.07202 173.341C3.07202 171.215 3.81102 169.472 5.28802 168.103C6.80102 166.699 8.60103 165.997 10.689 165.997H16.847C17.962 165.997 18.847 165.645 19.493 164.943C20.141 164.242 20.465 163.333 20.465 162.215L20.521 151.903C20.521 150.822 20.177 149.915 19.494 149.175C18.811 148.435 17.928 148.067 16.848 148.067L10.367 148.122C7.91602 148.122 6.69302 149.381 6.69302 151.903L6.74802 160.597C6.74802 161.858 6.13403 162.488 4.91003 162.488C3.68503 162.488 3.07302 161.858 3.07302 160.597L3.02002 151.903C3.02002 149.707 3.69502 147.899 5.04602 146.476C6.39602 145.053 8.16902 144.322 10.366 144.287H16.847C18.935 144.249 20.681 144.988 22.087 146.501C23.491 148.048 24.175 149.849 24.14 151.903Z" fill="white"/>
<path d="M54.403 162.164C54.403 164.358 53.735 166.169 52.403 167.589C51.071 169.013 49.306 169.724 47.11 169.724L40.628 169.778C38.539 169.813 36.794 169.076 35.388 167.564C33.984 166.051 33.283 164.251 33.283 162.165V151.903C33.283 149.814 33.984 148.013 35.388 146.501C36.794 144.988 38.539 144.249 40.628 144.287H47.11C49.379 144.322 51.162 145.034 52.459 146.422C53.753 147.809 54.403 149.635 54.403 151.903L54.456 157.033L54.403 162.164ZM50.729 162.164V151.902C50.729 150.821 50.386 149.922 49.703 149.2C49.018 148.481 48.155 148.121 47.11 148.121L40.628 148.066C39.584 148.066 38.711 148.445 38.01 149.2C37.307 149.957 36.954 150.856 36.954 151.902V162.164C36.954 163.208 37.307 164.107 38.01 164.862C38.711 165.62 39.584 165.997 40.628 165.997L47.11 165.943C48.19 165.943 49.063 165.584 49.729 164.862C50.396 164.142 50.729 163.242 50.729 162.164Z" fill="white"/>
<path d="M98.933 146.447C98.933 146.735 98.915 146.933 98.88 147.042L95.747 164.216C95.026 167.995 92.595 169.887 88.454 169.887H87.751C83.609 169.887 81.197 167.995 80.514 164.216L80.297 163.243L80.135 164.216C79.414 167.995 76.984 169.887 72.844 169.887H72.141C67.999 169.887 65.586 167.995 64.904 164.216L61.716 147.042C61.644 146.754 61.609 146.556 61.609 146.447C61.609 145.223 62.238 144.611 63.499 144.611C64.76 144.611 65.391 145.223 65.391 146.447L68.524 163.675C68.848 165.404 70.053 166.266 72.142 166.266H72.845C74.934 166.266 76.139 165.405 76.465 163.675L78.461 152.874L77.327 147.041C77.255 146.753 77.219 146.555 77.219 146.446C77.219 145.222 77.85 144.61 79.112 144.61C80.37 144.61 81.003 145.222 81.003 146.446L84.136 163.674C84.458 165.403 85.664 166.265 87.753 166.265H88.456C90.544 166.265 91.751 165.404 92.075 163.674L95.207 146.446C95.207 145.222 95.839 144.61 97.098 144.61C98.321 144.611 98.933 145.223 98.933 146.447Z" fill="white"/>
<path d="M128.429 151.578C128.429 153.629 127.672 155.358 126.159 156.762C124.682 158.132 122.899 158.832 120.811 158.867L114.815 158.921C113.698 158.921 112.781 159.245 112.061 159.895C111.34 160.543 110.981 161.427 110.981 162.54C110.981 163.584 111.358 164.455 112.114 165.159C112.872 165.861 113.77 166.213 114.815 166.213L125.673 166.159C126.932 166.159 127.564 166.771 127.564 167.994C127.564 169.218 126.932 169.832 125.673 169.832H114.815C112.547 169.832 110.71 169.183 109.305 167.886C107.901 166.592 107.199 164.808 107.199 162.54C107.199 160.272 107.901 158.487 109.305 157.194C110.709 155.899 112.547 155.249 114.815 155.249H120.811C121.854 155.249 122.756 154.899 123.512 154.198C124.269 153.492 124.647 152.622 124.647 151.578C124.647 150.536 124.269 149.669 123.512 148.985C122.756 148.298 121.854 147.959 120.811 147.959H114.868C113.788 147.959 112.88 148.299 112.141 148.985C111.403 149.669 111.034 150.536 111.034 151.578C111.034 152.804 110.403 153.413 109.144 153.413C107.883 153.413 107.251 152.804 107.251 151.578H107.198C107.198 149.309 107.908 147.527 109.332 146.23C110.755 144.934 112.6 144.286 114.867 144.286H120.81C123.08 144.286 124.915 144.934 126.32 146.23C127.727 147.528 128.429 149.31 128.429 151.578Z" fill="white"/>
<path d="M153.29 146.122C153.29 146.664 153.083 147.122 152.67 147.502C152.255 147.879 151.796 148.066 151.292 148.066H144.918C143.874 148.066 143.001 148.435 142.299 149.174C141.597 149.913 141.244 150.82 141.244 151.902V167.885C141.244 169.148 140.634 169.777 139.409 169.777C138.184 169.777 137.573 169.148 137.573 167.885V151.902C137.573 149.633 138.229 147.798 139.544 146.392C140.859 144.986 142.649 144.286 144.918 144.286H151.401C152.66 144.286 153.29 144.899 153.29 146.122Z" fill="white"/>
<path d="M182.474 151.578C182.474 153.629 181.72 155.358 180.206 156.762C178.729 158.132 176.946 158.832 174.858 158.867L168.863 158.921C167.745 158.921 166.827 159.245 166.108 159.895C165.385 160.543 165.028 161.427 165.028 162.54C165.028 163.584 165.405 164.455 166.16 165.159C166.918 165.861 167.817 166.213 168.863 166.213L179.719 166.159C180.979 166.159 181.609 166.771 181.609 167.994C181.609 169.218 180.979 169.832 179.719 169.832H168.863C166.594 169.832 164.758 169.183 163.352 167.886C161.947 166.592 161.246 164.808 161.246 162.54C161.246 160.272 161.947 158.487 163.352 157.194C164.757 155.899 166.594 155.249 168.863 155.249H174.858C175.901 155.249 176.802 154.899 177.559 154.198C178.315 153.492 178.692 152.622 178.692 151.578C178.692 150.536 178.315 149.669 177.559 148.985C176.802 148.298 175.901 147.959 174.858 147.959H168.917C167.836 147.959 166.927 148.299 166.188 148.985C165.45 149.669 165.08 150.536 165.08 151.578C165.08 152.804 164.45 153.413 163.191 153.413C161.928 153.413 161.299 152.804 161.299 151.578H161.245C161.245 149.309 161.955 147.527 163.379 146.23C164.801 144.934 166.647 144.286 168.916 144.286H174.857C177.126 144.286 178.961 144.934 180.366 146.23C181.772 147.528 182.474 149.31 182.474 151.578Z" fill="white"/>
<path d="M212.672 162.215C212.672 163.298 212.5 164.306 212.159 165.24C211.815 166.177 211.322 166.979 210.674 167.644C210.028 168.31 209.251 168.833 208.35 169.211C207.451 169.589 206.46 169.776 205.381 169.776L198.899 169.831C196.809 169.831 195.063 169.093 193.658 167.616C192.255 166.104 191.553 164.305 191.553 162.214L191.606 151.902C191.642 149.597 192.301 147.753 193.579 146.365C194.856 144.979 196.632 144.286 198.9 144.286H205.058C206.137 144.286 207.037 143.972 207.758 143.344C208.479 142.712 208.838 141.857 208.838 140.777L208.785 135.052C208.963 133.789 209.575 133.161 210.619 133.161C211.88 133.161 212.546 133.789 212.619 135.052L212.673 140.777C212.673 143.047 211.963 144.826 210.539 146.123C209.115 147.42 207.27 148.067 205.002 148.067H198.899C197.819 148.067 196.944 148.436 196.279 149.175C195.611 149.914 195.259 150.821 195.224 151.903V162.215C195.19 163.298 195.521 164.207 196.225 164.943C196.925 165.68 197.819 166.035 198.899 165.997H205.381C207.829 165.926 209.034 164.665 208.999 162.215V153.467C208.962 152.244 209.574 151.634 210.837 151.634C212.024 151.634 212.636 152.244 212.672 153.467V162.215V162.215Z" fill="white"/>
<path d="M268.079 162.215C268.112 164.306 267.411 166.106 265.97 167.617C264.569 169.094 262.838 169.832 260.786 169.832L254.304 169.777C253.225 169.777 252.233 169.589 251.334 169.212C250.433 168.834 249.66 168.311 249.01 167.645C248.362 166.98 247.857 166.177 247.497 165.241C247.138 164.306 246.957 163.299 246.957 162.216L247.013 153.468C247.013 152.245 247.623 151.635 248.849 151.635C250.072 151.635 250.685 152.245 250.685 153.468L250.63 162.216C250.63 163.043 250.756 163.694 251.009 164.162C251.693 165.35 252.791 165.963 254.304 165.998H260.786C261.865 166.036 262.749 165.674 263.432 164.919C264.116 164.162 264.458 163.263 264.458 162.216L264.404 151.904C264.404 150.823 264.071 149.916 263.405 149.176C262.738 148.437 261.864 148.068 260.785 148.068H254.628C252.358 148.068 250.522 147.421 249.117 146.124C247.712 144.827 247.012 143.048 247.012 140.778V135.053C247.012 133.79 247.678 133.162 249.009 133.162C250.053 133.162 250.666 133.79 250.846 135.053V140.778C250.846 141.858 251.198 142.714 251.9 143.345C252.602 143.973 253.512 144.287 254.629 144.287H260.786C263.055 144.287 264.828 144.988 266.106 146.393C267.385 147.798 268.043 149.634 268.079 151.903V162.215V162.215Z" fill="white"/>
<path d="M293.654 167.886C293.654 169.114 293.023 169.724 291.763 169.724L285.713 169.778C284.595 169.778 283.588 169.598 282.687 169.238C281.789 168.881 281.014 168.357 280.365 167.671C279.719 166.988 279.222 166.178 278.881 165.241C278.538 164.306 278.366 163.278 278.366 162.165V146.123C278.366 144.899 278.979 144.287 280.204 144.287C281.177 144.287 281.789 144.899 282.041 146.123V162.165C282.041 163.209 282.393 164.108 283.094 164.863C283.798 165.621 284.669 165.998 285.714 165.998H291.601C292.971 165.997 293.654 166.628 293.654 167.886ZM299.597 175.935C299.597 178.059 298.911 179.86 297.544 181.335C296.174 182.811 294.429 183.55 292.305 183.55L280.691 183.494C279.466 183.494 278.855 182.88 278.855 181.657C278.855 181.153 279.05 180.713 279.448 180.337C279.844 179.96 280.295 179.771 280.799 179.771H292.306C293.349 179.771 294.223 179.389 294.924 178.634C295.628 177.879 295.979 176.979 295.979 175.935L295.924 146.123C295.96 145.799 296.122 145.368 296.41 144.826C296.769 144.467 297.219 144.287 297.76 144.287C298.985 144.287 299.598 144.899 299.598 146.123V175.935H299.597Z" fill="white"/>
<path d="M16.901 199.1C16.901 200.326 16.288 200.936 15.064 200.936L10.365 200.99C9.24801 200.99 8.24 200.81 7.34 200.452C6.44 200.091 5.66501 199.569 5.01701 198.883C4.37101 198.201 3.873 197.389 3.534 196.454C3.19 195.518 3.019 194.49 3.019 193.374V190.675C3.019 189.414 3.63101 188.783 4.85601 188.783C5.86401 188.783 6.47601 189.414 6.69201 190.675V193.374C6.65601 194.421 6.98901 195.318 7.69201 196.075C8.39401 196.834 9.285 197.209 10.366 197.209H14.957C15.461 197.209 15.91 197.398 16.309 197.776C16.702 198.153 16.901 198.596 16.901 199.1ZM18.737 220.808C18.737 222.036 18.107 222.646 16.846 222.646L10.365 222.7C8.27501 222.735 6.51001 222.016 5.07001 220.54C3.70101 218.993 3.01801 217.175 3.01801 215.087V203.636C3.01801 202.412 3.63001 201.8 4.85501 201.8C5.39401 201.8 5.82801 201.982 6.15101 202.339C6.40201 202.557 6.58301 202.987 6.69101 203.636V215.087C6.65501 216.132 6.99701 217.029 7.71701 217.786C8.43701 218.543 9.32001 218.92 10.364 218.92H16.736C18.069 218.919 18.737 219.55 18.737 220.808Z" fill="white"/>
<path d="M50.478 220.808C50.478 222.071 49.867 222.7 48.642 222.7C47.417 222.7 46.805 222.071 46.805 220.808L46.861 204.825C46.861 203.782 46.509 202.883 45.806 202.124C45.103 201.368 44.247 200.99 43.24 200.99H36.704C35.732 200.99 34.913 201.313 34.246 201.962C33.58 202.611 33.175 203.42 33.031 204.393V220.865C33.031 222.126 32.418 222.755 31.195 222.755C29.97 222.755 29.359 222.126 29.359 220.865V187.976C29.359 187.469 29.547 187.029 29.924 186.654C30.304 186.275 30.726 186.086 31.195 186.086C32.418 186.086 33.031 186.715 33.031 187.977V198.183C34.183 197.463 35.408 197.137 36.704 197.21H43.24C45.436 197.248 47.193 197.957 48.508 199.345C49.823 200.733 50.479 202.558 50.479 204.826V220.808H50.478Z" fill="white"/>
<path d="M81.131 204.5C81.131 206.553 80.374 208.28 78.862 209.686C77.383 211.054 75.601 211.754 73.513 211.789L67.518 211.845C66.401 211.845 65.483 212.167 64.764 212.818C64.042 213.465 63.682 214.347 63.682 215.464C63.682 216.506 64.059 217.378 64.817 218.081C65.574 218.783 66.473 219.135 67.518 219.135L78.375 219.081C79.633 219.081 80.266 219.694 80.266 220.916C80.266 222.14 79.633 222.753 78.375 222.753H67.518C65.248 222.753 63.413 222.105 62.006 220.808C60.603 219.515 59.902 217.732 59.902 215.464C59.902 213.194 60.603 211.412 62.006 210.116C63.412 208.821 65.248 208.172 67.518 208.172H73.513C74.558 208.172 75.457 207.819 76.215 207.118C76.971 206.414 77.348 205.544 77.348 204.5C77.348 203.457 76.971 202.591 76.215 201.905C75.457 201.223 74.558 200.882 73.513 200.882H67.571C66.491 200.882 65.581 201.224 64.844 201.905C64.104 202.591 63.736 203.457 63.736 204.5C63.736 205.724 63.105 206.335 61.846 206.335C60.584 206.335 59.953 205.724 59.953 204.5H59.901C59.901 202.231 60.611 200.451 62.033 199.153C63.457 197.856 65.302 197.208 67.57 197.208H73.512C75.781 197.208 77.618 197.856 79.022 199.153C80.429 200.451 81.131 202.231 81.131 204.5Z" fill="white"/>
<path d="M157.235 202.751L157.18 218.791C157.143 218.971 157.08 219.168 156.991 219.384C156.901 219.602 156.784 219.853 156.639 220.141C156.281 220.502 155.846 220.68 155.343 220.68C154.119 220.68 153.507 220.052 153.507 218.791L153.561 202.751C153.561 201.668 153.218 200.772 152.535 200.05C151.85 199.329 150.969 198.969 149.889 198.969L144.756 198.914C143.856 198.914 143.063 199.214 142.379 199.808C141.695 200.401 141.279 201.149 141.137 202.048C141.173 202.194 141.19 202.427 141.19 202.751V218.735C141.19 219.998 140.579 220.626 139.355 220.626H139.301C138.076 220.626 137.463 219.998 137.463 218.735V202.751C137.463 202.427 137.481 202.193 137.517 202.048C137.374 201.149 136.959 200.401 136.276 199.808C135.59 199.214 134.799 198.914 133.898 198.914L125.094 198.969V218.9C125.094 220.159 124.482 220.789 123.258 220.789C122.031 220.789 121.421 220.159 121.421 218.9V196.971C121.421 195.75 122.031 195.136 123.258 195.136H133.898C136.059 195.136 137.86 195.964 139.301 197.619C140.776 195.929 142.596 195.1 144.756 195.136H149.889C152.049 195.209 153.794 195.964 155.127 197.404C156.532 198.882 157.235 200.663 157.235 202.751Z" fill="white"/>
<path d="M188.845 202.427C188.845 204.479 188.089 206.205 186.575 207.611C185.098 208.982 183.317 209.682 181.227 209.717L175.231 209.773C174.116 209.773 173.196 210.095 172.477 210.746C171.755 211.393 171.397 212.272 171.397 213.391C171.397 214.434 171.774 215.306 172.53 216.008C173.287 216.71 174.187 217.062 175.231 217.062L186.089 217.006C187.349 217.006 187.979 217.621 187.979 218.845C187.979 220.068 187.349 220.68 186.089 220.68H175.231C172.963 220.68 171.127 220.033 169.721 218.736C168.317 217.442 167.616 215.659 167.616 213.391C167.616 211.12 168.317 209.338 169.721 208.043C171.126 206.746 172.963 206.099 175.231 206.099H181.227C182.27 206.099 183.172 205.747 183.929 205.046C184.684 204.342 185.063 203.471 185.063 202.427C185.063 201.382 184.684 200.519 183.929 199.833C183.172 199.151 182.27 198.81 181.227 198.81H175.286C174.205 198.81 173.296 199.152 172.557 199.833C171.819 200.519 171.45 201.382 171.45 202.427C171.45 203.651 170.819 204.263 169.559 204.263C168.299 204.263 167.668 203.651 167.668 202.427H167.615C167.615 200.159 168.324 198.376 169.748 197.08C171.17 195.784 173.016 195.136 175.285 195.136H181.226C183.495 195.136 185.331 195.784 186.736 197.08C188.143 198.376 188.845 200.159 188.845 202.427Z" fill="white"/>
<path d="M236.104 202.751L236.05 218.791C236.013 218.971 235.95 219.168 235.862 219.384C235.77 219.602 235.653 219.853 235.51 220.141C235.149 220.502 234.716 220.68 234.212 220.68C232.988 220.68 232.376 220.052 232.376 218.791L232.432 202.751C232.432 201.668 232.087 200.772 231.406 200.05C230.72 199.329 229.839 198.969 228.76 198.969L223.627 198.914C222.726 198.914 221.933 199.214 221.249 199.808C220.565 200.401 220.15 201.149 220.006 202.048C220.043 202.194 220.063 202.427 220.063 202.751V218.735C220.063 219.998 219.45 220.626 218.226 220.626H218.172C216.946 220.626 216.335 219.998 216.335 218.735V202.751C216.335 202.427 216.353 202.193 216.389 202.048C216.244 201.149 215.83 200.401 215.147 199.808C214.46 199.214 213.668 198.914 212.769 198.914L203.965 198.969V218.9C203.965 220.159 203.352 220.789 202.128 220.789C200.904 220.789 200.291 220.159 200.291 218.9V196.971C200.291 195.75 200.904 195.136 202.128 195.136H212.769C214.931 195.136 216.731 195.964 218.172 197.619C219.647 195.929 221.465 195.1 223.627 195.136H228.76C230.918 195.209 232.665 195.964 233.997 197.404C235.402 198.882 236.104 200.663 236.104 202.751Z" fill="white"/>
<path d="M267.859 202.427C267.859 204.479 267.102 206.205 265.59 207.611C264.113 208.982 262.33 209.682 260.242 209.717L254.247 209.773C253.128 209.773 252.211 210.095 251.491 210.746C250.77 211.393 250.411 212.272 250.411 213.391C250.411 214.434 250.788 215.306 251.545 216.008C252.3 216.71 253.201 217.062 254.247 217.062L265.103 217.006C266.362 217.006 266.993 217.621 266.993 218.845C266.993 220.068 266.362 220.68 265.103 220.68H254.247C251.978 220.68 250.14 220.033 248.735 218.736C247.331 217.442 246.63 215.659 246.63 213.391C246.63 211.12 247.331 209.338 248.735 208.043C250.139 206.746 251.978 206.099 254.247 206.099H260.242C261.285 206.099 262.186 205.747 262.943 205.046C263.698 204.342 264.076 203.471 264.076 202.427C264.076 201.382 263.698 200.519 262.943 199.833C262.186 199.151 261.285 198.81 260.242 198.81H254.3C253.22 198.81 252.311 199.152 251.573 199.833C250.834 200.519 250.464 201.382 250.464 202.427C250.464 203.651 249.834 204.263 248.573 204.263C247.311 204.263 246.683 203.651 246.683 202.427H246.629C246.629 200.159 247.34 198.376 248.762 197.08C250.185 195.784 252.031 195.136 254.299 195.136H260.241C262.51 195.136 264.345 195.784 265.749 197.08C267.157 198.376 267.859 200.159 267.859 202.427Z" fill="white"/>
<path d="M299.764 213.391C299.764 215.659 299.062 217.442 297.657 218.736C296.253 220.033 294.416 220.68 292.148 220.68H281.29C280.064 220.68 279.453 220.068 279.453 218.845C279.453 217.657 279.993 217.062 281.074 217.062C281.505 217.062 281.684 217.044 281.612 217.006H292.147C293.19 217.006 294.091 216.664 294.847 215.981C295.603 215.3 295.982 214.434 295.982 213.391C295.982 212.272 295.623 211.393 294.901 210.746C294.179 210.096 293.262 209.773 292.147 209.773L286.151 209.717C284.062 209.682 282.261 208.982 280.75 207.611C279.271 206.206 278.534 204.479 278.534 202.427C278.534 200.159 279.237 198.376 280.639 197.08C282.045 195.784 283.882 195.136 286.151 195.136H297.008C298.268 195.136 298.899 195.75 298.899 196.971C298.899 198.197 298.268 198.81 297.008 198.81H286.151C285.106 198.772 284.207 199.106 283.45 199.808C282.692 200.509 282.317 201.382 282.317 202.427C282.317 203.435 282.692 204.301 283.45 205.018C284.207 205.74 285.106 206.099 286.151 206.099H292.147C294.415 206.099 296.251 206.746 297.656 208.043C299.062 209.338 299.764 211.119 299.764 213.391Z" fill="white"/>
<path d="M300.231 122.731H0.994019V124.754H300.231V122.731Z" fill="white"/>
</svg>
