<svg width="37" height="30" viewBox="0 0 37 30" fill="none" xmlns="http://www.w3.org/2000/svg">
<path d="M33.1195 7.47475C33.1425 7.80231 33.1425 8.13131 33.1425 8.45887C33.1425 18.4675 25.5483 30 11.6717 30C11.6559 30 11.6358 30 11.6156 30C7.33096 30 3.34258 28.733 0 26.5512L0.0819824 26.6017C0.594013 26.6609 1.18803 26.6955 1.78923 26.6955C1.8295 26.6955 1.86978 26.6955 1.91149 26.6955H1.90573C1.91724 26.6955 1.93162 26.6955 1.94601 26.6955C5.47988 26.6955 8.73186 25.4776 11.305 23.4387L11.2733 23.4632C7.98538 23.4012 5.21524 21.2424 4.23289 18.267L4.21706 18.2136C4.64424 18.2843 5.13757 18.3261 5.63953 18.329H5.64241C6.34861 18.3276 7.03323 18.2338 7.68478 18.0592L7.62869 18.0721C4.15234 17.3478 1.5778 14.3016 1.5778 10.6508C1.5778 10.6465 1.5778 10.6436 1.5778 10.6392V10.5455C2.56016 11.1053 3.72805 11.456 4.97361 11.505H4.98799C2.94849 10.1255 1.62383 7.81674 1.62383 5.19769C1.62383 3.79076 2.00641 2.4733 2.6709 1.34343L2.65221 1.37807C6.39176 5.9697 11.922 8.97114 18.1598 9.2987L18.2131 9.30159C18.098 8.78211 18.0304 8.1847 18.0261 7.57287V7.56998C18.0318 3.38817 21.4118 0 25.58 0C27.7489 0 29.705 0.917749 31.0829 2.38672L31.0872 2.39105C32.8922 2.03463 34.4974 1.39971 35.9429 0.525252L35.8767 0.56277C35.2927 2.34199 34.1191 3.79365 32.5931 4.71573L32.5586 4.73449C34.1694 4.54545 35.6379 4.13131 37 3.52237L36.9036 3.56133C35.8508 5.08658 34.5981 6.38095 33.1641 7.44444L33.1195 7.47619V7.47475Z" fill="black"/>
</svg>
